<?xml version="1.0" encoding="UTF-8"?>
<svg data-bbox="-0.024 -0.016 288.004 134.992" xmlns="http://www.w3.org/2000/svg" viewBox="0 0 288 135" height="135" width="288" data-type="color">
    <g>
        <g clip-path="url(#066fd5bb-45f6-4a57-8e23-8c02a88411be)">
            <path fill="#196031" d="M85.922 33.562c.696 1.044 1.293 1.99 1.965 3.035-.97.646-1.89 1.268-2.836 1.865-8.83 5.672-17.662 11.319-26.467 17.04-1.443.945-2.588 1.02-4.155.274-11.592-5.398-23.258-10.697-34.9-16.02-5.249-2.388-10.473-4.826-15.722-7.214-1.915-.896-1.99-2.314-.174-3.657a872 872 0 0 1 7.737-5.547C21.618 16.049 31.892 8.81 42.016 1.348 44.206-.27 45.847-.443 48.31.8c16.94 8.582 33.98 17.015 50.97 25.472 1.02.498 1.468 1.194 1.468 2.339v76.666c0 1.12-.498 1.791-1.344 2.338-13.681 8.931-27.388 17.861-41.07 26.816-.945.622-1.79.722-2.81.249-7.562-3.482-15.15-6.94-22.712-10.398-9.9-4.552-19.8-9.104-29.726-13.607-.896-.398-2.015-.298-3.11-.423v-3.582c1.543.199 3.185.05 4.503.647 14.03 6.343 28.01 12.836 41.99 19.254 3.16 1.442 6.294 2.91 9.478 4.278.423.174 1.169 0 1.592-.273 12.487-8.16 24.925-16.393 37.462-24.478 1.667-1.07 2.14-2.139 2.14-4.03-.075-23.457-.075-46.94 0-70.398 0-1.816-.498-2.661-2.164-3.482-14.652-7.214-29.23-14.577-43.831-21.89-1.617-.822-3.234-1.668-4.926-2.389-.472-.199-1.293-.15-1.716.15-10.672 7.586-21.318 15.223-31.965 22.835a892 892 0 0 0-4.776 3.383c1.716.796 3.233 1.543 4.776 2.264 9.552 4.378 19.08 8.756 28.632 13.11 4.651 2.139 9.303 4.253 13.955 6.417.771.348 1.393.324 2.164-.174 9.055-5.87 18.16-11.692 27.239-17.512.398-.25.796-.498 1.343-.846" data-color="1"/>
            <path fill="#196031" d="M87.96 75.8c-4.603 2.96-9.105 5.822-13.558 8.707-5.498 3.532-11.02 7.065-16.518 10.647-.895.597-1.666.672-2.661.199-9.876-4.577-19.751-9.13-29.652-13.682A3702 3702 0 0 0 2.984 71.348c-.896-.398-1.12-.771-.597-1.617.423-.697.721-1.443 1.12-2.239 3.333 1.493 6.566 2.935 9.8 4.428 9.851 4.527 19.702 9.055 29.553 13.607 4.129 1.915 8.283 3.781 12.388 5.721.746.349 1.268.349 2.015-.124 9.104-5.92 18.283-11.741 27.388-17.662 1.094-.721 1.641-.622 2.164.498.298.622.721 1.169 1.169 1.89" data-color="1"/>
            <path fill="#196031" d="M2.04 51.961c1.095-3.433 1.145-3.507 4.18-2.14 7.388 3.334 14.726 6.742 22.09 10.125A5369 5369 0 0 0 55.522 72.36c.473.224 1.343 0 1.84-.298 8.732-5.573 17.439-11.194 26.145-16.767 2.91-1.865 2.09-1.94 3.98.846.15.2.249.448.448.771-2.736 1.791-5.448 3.582-8.184 5.324-7.164 4.602-14.353 9.179-21.517 13.806-1.145.746-2.065.846-3.359.248-8.308-3.905-16.691-7.686-25.05-11.517L3.11 52.533c-.348-.149-.696-.348-1.094-.547" data-color="1"/>
            <path fill="#196031" d="M85.926 91.472c.721 1.095 1.343 2.065 2.064 3.16-1.318.845-2.562 1.666-3.83 2.462-8.582 5.523-17.164 10.995-25.722 16.543-1.368.895-2.487.895-3.955.199-9.552-4.453-19.13-8.806-28.706-13.209-7.612-3.483-15.2-7.015-22.836-10.473-.946-.423-1.02-.846-.548-1.667.398-.646.697-1.393 1.095-2.214 3.184 1.443 6.294 2.836 9.403 4.254 8.632 3.955 17.264 7.91 25.87 11.866 5.274 2.438 10.573 4.826 15.822 7.338 1.318.622 2.263.448 3.432-.323 9.23-6.02 18.483-11.965 27.886-18.01" data-color="1"/>
            <path fill="#196031" d="m113.109 83.41 12.189-38.582h4.478l12.96 38.582h-4.801l-3.681-11.691h-13.309l-3.433 11.691zm9.08-15.82h10.771l-3.283-10.672c-1.02-3.284-1.767-5.946-2.239-8.01-.398 2.462-.995 4.925-1.742 7.363z" data-color="1"/>
            <path fill="#196031" d="M149.836 83.409V44.852h4.179v34.005h15.572v4.552z" data-color="1"/>
            <path fill="#196031" d="M183.579 83.409V49.404h-10.423v-4.552h25.075v4.552h-10.473v34.005z" data-color="1"/>
            <path fill="#196031" d="m199.805 83.41 12.189-38.582h4.477l12.961 38.582h-4.801l-3.682-11.691h-13.308l-3.433 11.691zm9.079-15.82h10.771l-3.283-10.672c-1.02-3.284-1.766-5.946-2.239-8.01-.398 2.462-.995 4.925-1.741 7.363z" data-color="1"/>
            <path fill="#196031" d="M123.827 90.171c-.671-.796-1.467-1.368-2.388-1.667-.696-.223-1.666-.348-2.985-.348h-5.423v18.732h5.647c1.567 0 2.886-.324 3.856-.946.995-.622 1.816-1.691 2.438-3.184.621-1.467.92-3.258.92-5.348 0-1.617-.174-3.06-.547-4.254s-.871-2.189-1.543-3.01zm-8.258.672h2.86c1.095 0 1.916.1 2.413.323.722.324 1.319.995 1.791 1.99.473 1.02.722 2.438.722 4.23 0 1.666-.224 3.133-.697 4.327-.323.871-.821 1.493-1.418 1.891q-.933.597-2.761.597h-2.91z" data-color="1"/>
            <path fill="#196031" d="M132.584 98.53h8.234v-2.687h-8.234v-5h8.781v-2.687h-11.318v18.707h11.667v-2.687h-9.13z" data-color="1"/>
            <path fill="#196031" d="M151.89 101.541a27 27 0 0 0-.523 1.89c-.174-.646-.348-1.268-.522-1.89l-3.93-13.408h-2.712l5.896 18.532.049.199h2.438l5.896-18.358.124-.348h-2.587l-4.104 13.383z" data-color="1"/>
            <path fill="#196031" d="M164.153 98.53h8.234v-2.687h-8.234v-5h8.806v-2.687h-11.318v18.707h11.666v-2.687h-9.154z" data-color="1"/>
            <path fill="#196031" d="M179.778 88.156h-2.512v18.707h9.85v-2.687h-7.338z" data-color="1"/>
            <path fill="#196031" d="M201.466 89.005a6.5 6.5 0 0 0-3.756-1.17c-2.115 0-3.906.872-5.299 2.588s-2.114 4.18-2.114 7.313c0 2.513.622 4.677 1.866 6.443 1.393 1.99 3.258 2.985 5.522 2.985s4.129-.97 5.522-2.91c1.244-1.741 1.891-4.005 1.891-6.741 0-1.99-.324-3.732-.97-5.175-.647-1.467-1.543-2.587-2.662-3.358zm1.045 8.458c0 2.363-.473 4.154-1.418 5.323-.921 1.194-2.04 1.766-3.433 1.766s-2.463-.597-3.383-1.741c-.945-1.169-1.418-2.886-1.418-5.05 0-2.512.473-4.403 1.393-5.597.92-1.169 2.04-1.766 3.458-1.766.87 0 1.666.274 2.388.796.746.547 1.293 1.269 1.667 2.14.497 1.194.721 2.562.721 4.079z" data-color="1"/>
            <path fill="#196031" d="M217.859 88.506c-.672-.249-1.642-.373-3.01-.373h-5.896v18.731h2.513v-7.388h3.532c2.114 0 3.657-.547 4.552-1.642.871-1.07 1.319-2.487 1.319-4.179 0-1.293-.274-2.388-.796-3.283-.548-.896-1.294-1.543-2.19-1.866zm.422 5.249c0 1.02-.248 1.79-.771 2.288-.497.498-1.343.746-2.462.746h-3.582v-5.945h3.532c1.219 0 1.766.15 2.015.249.348.174.647.473.895.945q.373.71.373 1.717" data-color="1"/>
            <path fill="#196031" d="M232.713 100.992c-.199.746-.373 1.368-.522 1.915l-3.98-14.552-.05-.199h-3.458v18.732h2.438V93.156l3.831 13.732h2.189l3.856-13.508v13.508h2.437V88.156h-3.134l-3.632 12.836z" data-color="1"/>
            <path fill="#196031" d="M246.561 98.53h8.234v-2.687h-8.234v-5h8.781v-2.687h-11.319v18.707h11.667v-2.687h-9.129z" data-color="1"/>
            <path fill="#196031" d="m269.577 101.639-7.313-13.333-.075-.15h-2.462v18.707h2.437V93.38l7.314 13.358.074.125h2.463V88.156h-2.438z" data-color="1"/>
            <path fill="#196031" d="M275.617 88.156v2.687h4.901v16.02h2.537v-16.02h4.925v-2.687z" data-color="1"/>
        </g>
        <defs fill="none">
            <clipPath id="066fd5bb-45f6-4a57-8e23-8c02a88411be">
                <path fill="#ffffff" d="M287.985 0v135H0V0z"/>
            </clipPath>
        </defs>
    </g>
</svg>
