<?xml version="1.0" encoding="UTF-8"?>
<svg xmlns="http://www.w3.org/2000/svg" version="1.1" viewBox="0 0 334 250">
  <defs>
    <style>
      .cls-1 {
        fill: #df2c28;
      }
    </style>
  </defs>
  <!-- Generator: Adobe Illustrator 28.7.1, SVG Export Plug-In . SVG Version: 1.2.0 Build 142)  -->
  <g>
    <g id="Layer_1">
      <g>
        <path d="M190.5,209.9c0-1.2-.4-1.8-1.3-2.4-1.1-.7-2.8-1.5-4.3-2.1-1.4-.5-2.8-.6-6.4-.8-3-.1-7.4-.1-12-.2-7.5,0-15,0-18.4,0,0,0-.2,0-.2.2v15.9c0,0,0,.2.2.2,3.4,0,10.8,0,18.4,0,4.6,0,9,0,12-.2,3.6-.1,5-.2,6.4-.8,1.6-.6,3.2-1.4,4.3-2.1.9-.6,1.2-1.2,1.3-2.4,0-.8,0-1.9,0-2.8s0-2,0-2.8h0ZM180.4,214.3c0,1-.2,1.2-.9,1.7-.4.2-.8.4-1.2.5-.8.3-1.5.4-3,.5-2.3,0-5.1,0-8.2,0-3.3,0-6.5,0-8.8,0s-.2,0-.2-.2v-8.5c0,0,0-.2.2-.2,2.3,0,5.5,0,8.8,0,3.1,0,5.9,0,8.2,0,1.5,0,2.2.1,3,.5.4.1.8.3,1.2.5.7.4.9.6.9,1.7,0,.4,0,1.2,0,1.7,0,.5,0,1.2,0,1.7h0ZM82,209.6c0-1.3-.4-1.8-1.3-2.5-1.2-.8-2.9-1.6-4.5-2.2-1.5-.5-2.9-.7-6.6-.8-3.1-.1-7.6-.1-12.5-.2-7.8,0-15.6,0-19.1,0,0,0-.2,0-.2.2v16.5c0,0,0,.2.2.2,3.5,0,11.3,0,19.1,0,4.8,0,9.4,0,12.5-.2,3.7-.1,5.2-.2,6.6-.8,1.6-.6,3.4-1.4,4.5-2.2,1-.6,1.3-1.2,1.3-2.5,0-.8,0-2,0-2.9,0-.9,0-2.1,0-2.9h0ZM71.6,214.2c0,1-.2,1.3-1,1.7-.4.2-.8.4-1.2.6-.9.3-1.5.4-3.1.5-2.4,0-5.3,0-8.5,0-3.4,0-6.8,0-9.2,0s-.2,0-.2-.2v-8.8c0,0,0-.2.2-.2,2.4,0,5.8,0,9.2,0,3.3,0,6.2,0,8.5,0,1.6,0,2.2.1,3.1.5.4.2.9.4,1.2.6.8.4.9.7,1,1.7,0,.5,0,1.2,0,1.7s0,1.3,0,1.7h0ZM136.9,209.7c0-1.2-.4-1.8-1.3-2.4-1.1-.8-2.9-1.6-4.5-2.2-1.5-.5-2.9-.6-6.6-.8-3.1-.1-4.8-.1-9.5-.2-4.8,0-6.4,0-9.5.2-3.7.1-5.1.2-6.6.8-1.6.6-3.3,1.4-4.5,2.2-1,.6-1.2,1.2-1.3,2.4,0,.8,0,2,0,2.9,0,.9,0,2.1,0,2.9,0,1.2.4,1.8,1.3,2.4,1.1.8,2.9,1.6,4.5,2.2,1.5.5,2.9.6,6.6.8,3.1.1,4.8.1,9.5.2,4.8,0,6.4,0,9.5-.2,3.7-.1,5.1-.2,6.6-.8,1.6-.6,3.3-1.4,4.5-2.2,1-.6,1.2-1.2,1.3-2.4,0-.8,0-2,0-2.9,0-.9,0-2.1,0-2.9h0ZM126.5,214.3c0,1-.2,1.3-1,1.7-.4.2-.8.4-1.2.6-.9.3-1.5.4-3.1.5-2.4,0-3,0-6.2,0-3.2,0-3.9,0-6.2,0-1.6,0-2.2-.1-3.1-.5-.4-.2-.9-.4-1.2-.6-.8-.4-.9-.7-1-1.7,0-.5,0-1.2,0-1.7s0-1.3,0-1.7c0-1,.2-1.3,1-1.7.4-.2.8-.4,1.2-.6.9-.3,1.5-.4,3.1-.5,2.4,0,3,0,6.2,0,3.2,0,3.9,0,6.2,0,1.6,0,2.2.1,3.1.5.4.2.9.4,1.2.6.8.4.9.7,1,1.7,0,.5,0,1.2,0,1.7s0,1.3,0,1.7ZM296.2,217.1v3.4c0,0,0,.2-.2.2h-40.3c-.6,0-.7,0-.7-.9v-14.7c0-.4,0-.5.7-.5h39.8c0,0,.2,0,.2.2v3.1c0,0,0,.2-.2.2h-29.6c-.6,0-.7.2-.7.8v1.6c0,0,0,.2.2.2h24.2c0,0,.2.2.2.3v3c0,0,0,.2-.2.2h-24.2c0,0-.2.2-.2.3v1.9c0,.6,0,.7.7.7h30.1c0,0,.2.2.2.3h0ZM244.1,212.6v8c0,0,0,.2-.2.2-3.4,0-10.8,0-18.4,0-4.6,0-9,0-12-.2-3.6-.1-5-.2-6.4-.8-1.6-.6-3.2-1.4-4.3-2.1-.9-.6-1.2-1.2-1.3-2.4,0-.8,0-1.9,0-2.8s0-2,0-2.8c0-1.2.4-1.8,1.3-2.4,1.1-.7,2.8-1.5,4.3-2.1,1.4-.5,2.8-.6,6.4-.8,3-.1,7.4-.1,12-.2,7.5,0,14.8,0,18.2,0,0,0,.2,0,.2.2v3.3c0,0,0,.2-.2.2h-18.8c-3.1,0-5.9,0-8.2,0-1.5,0-2.2.1-3,.5-.4.1-.8.3-1.2.5-.7.4-.9.6-.9,1.7,0,.4,0,1.2,0,1.7,0,.5,0,1.2,0,1.7,0,1,.2,1.2.9,1.7.4.2.8.4,1.2.5.8.3,1.5.4,3,.5,2.3,0,5.1,0,8.2,0,3.3,0,6,0,8.2,0s.3-.1.3-.3v-.4c0-.2,0-.3-.2-.4l-5-3.2c-.1,0-.1-.2,0-.3l.5-.3c.5-.3.7-.3,1.3-.3,2.7,0,12.4,0,13.5,0,.6,0,.7,0,.7.7h0Z"/>
        <path class="cls-1" d="M198.3,103.5c-13.1-24.2-21.5-49.6-24.4-73.4v-.8c0,0-3.6-.2-7-.2s-6.9.2-6.9.2v.8c-2.9,23.9-11.4,49.3-24.5,73.5l-1.3,2.6,13.6,7.5c8.1-11.9,13.8-18.7,19-18.7s10.9,6.9,19,18.7l13.6-7.5-1.3-2.6h0ZM188,105c-8-11.1-13.8-16.7-21-16.7s-13.1,5.6-21,16.7l-2.9-1.6c11.7-22.3,19.5-45.7,22.8-67.9.4,0,.8,0,1.1,0s.8,0,1.1,0c3.3,22.2,11.1,45.6,22.8,67.9l-2.9,1.6h0Z"/>
        <path class="cls-1" d="M163.1,153.2c-14.3-1.1-23.1-2.6-25.7-7.1-2.6-4.5.5-12.9,6.7-25.8l-13.3-8.1-1.6,2.4c-14.4,23.4-32.1,43.4-51.4,57.8l-.7.5s1.4,2.9,3.2,6c1.8,3.1,3.7,6,3.7,6l.8-.3c22.1-9.5,48.3-14.9,75.8-15.6h2.9c0-.1-.3-15.7-.3-15.7h0ZM86.6,176.7c-.2-.4-.4-.7-.6-1.1-.2-.3-.3-.6-.5-.9,17.6-14,33.9-32.4,47.4-53.7l2.8,1.7c-5.6,12.5-7.5,20.3-4,26.6,3.6,6.2,11.4,8.5,25,9.9v3.3c-25.1,1-49.2,5.9-70.1,14.2h0Z"/>
        <path class="cls-1" d="M170.6,168.7h2.9c27.5.9,53.7,6.3,75.8,15.7l.8.3s1.9-2.9,3.7-6c1.8-3.1,3.2-6,3.2-6l-.7-.5c-19.3-14.4-37-34.4-51.4-57.8l-1.6-2.4-13.3,8.1c6.2,13,9.3,21.3,6.7,25.8-2.6,4.5-11.4,6-25.7,7.1l-.3,15.6h0ZM177.2,162.5v-3.3c13.7-1.4,21.5-3.6,25-9.9s1.7-14.1-4-26.6l2.8-1.7c13.5,21.3,29.8,39.7,47.4,53.7-.2.3-.3.6-.5.9-.2.4-.4.7-.6,1.1-20.9-8.3-45-13.2-70.2-14.2h0Z"/>
      </g>
    </g>
  </g>
</svg>