<?xml version="1.0" encoding="UTF-8"?>
<svg data-bbox="0 0 421.002 73.331" xmlns="http://www.w3.org/2000/svg" viewBox="0 0 421 74" height="74" width="421" data-type="color">
    <g>
        <g clip-path="url(#73da6b3f-1beb-4cd1-88d9-15c00c7b6aa2)">
            <path fill="#1a1a1a" d="M75.564 62.456h3.46q2.078 0 3.36 1.048c.855.698 1.282 1.637 1.282 2.832q-.002 1.308-.736 2.201c-.49.597-1.166 1.014-2.014 1.262.585.249 1.177.838 1.783 1.784l1.075 1.645h-1.366l-.879-1.368q-.656-1.013-1.17-1.322c-.343-.21-.805-.315-1.401-.322h-2.2v3.012h-1.194zm1.198 1.121v5.507h2.351q1.491 0 2.453-.693.961-.695.963-2.061c0-.912-.32-1.588-.963-2.055q-.962-.699-2.453-.698z" data-color="1"/>
            <path fill="#1a1a1a" d="M89.964 67.226h5.272v1.121h-5.272v3.755h5.611v1.121h-6.81V62.46h6.81v1.12h-5.61v3.65z" data-color="1"/>
            <path fill="#1a1a1a" d="M103.535 62.35h.169q1.14-.002 2.178.48c.693.322 1.261.76 1.717 1.322l-.782.709a3.8 3.8 0 0 0-1.401-1.014 4.2 4.2 0 0 0-1.706-.371h-.168c-.637 0-1.209.164-1.727.49q-.778.49-.778 1.385-.001.692.564 1.07c.371.252.956.427 1.744.529l1.17.15q1.705.221 2.583.93c.585.473.878 1.188.878 2.128s-.382 1.706-1.148 2.285q-1.15.869-2.82.884h-.091q-1.554-.001-2.683-.637-1.132-.64-1.654-1.7l.782-.722q.387.862 1.306 1.402.92.54 2.245.54h.091c.788 0 1.446-.186 1.975-.55.529-.372.793-.867.793-1.494q.001-.88-.596-1.328c-.4-.298-1.002-.512-1.801-.624l-1.17-.14c-1.121-.141-1.958-.435-2.522-.863-.563-.434-.844-1.041-.844-1.83 0-.9.361-1.633 1.086-2.184q1.087-.827 2.623-.844l-.011-.007z" data-color="1"/>
            <path fill="#1a1a1a" d="M114.991 72.102h1.261v1.121h-3.72v-1.121h1.261v-8.518h-1.261v-1.121h3.72v1.121h-1.261z" data-color="1"/>
            <path fill="#1a1a1a" d="M121.755 62.456h3.381c1.537 0 2.837.502 3.888 1.508 1.058 1.003 1.581 2.297 1.581 3.874s-.523 2.87-1.577 3.873c-1.051 1.009-2.351 1.51-3.892 1.51h-3.381zm1.198 9.646h2.183q1.849.002 3.061-1.154 1.216-1.156 1.216-3.108 0-1.951-1.216-3.109-1.213-1.155-3.061-1.153h-2.183z" data-color="1"/>
            <path fill="#1a1a1a" d="M137.006 67.226h5.272v1.121h-5.272v3.755h5.611v1.121h-6.809V62.46h6.809v1.12h-5.611v3.65z" data-color="1"/>
            <path fill="#1a1a1a" d="M155.731 73.221h-.659l-6.284-8.412v8.412h-1.199V62.456h.676l6.274 8.412v-8.412h1.198v10.765z" data-color="1"/>
            <path fill="#1a1a1a" d="M166.292 62.35c1.622 0 2.971.603 4.057 1.802l-.781.709q-1.333-1.385-3.276-1.385-1.797-.001-3.037 1.255c-.827.834-1.237 1.875-1.237 3.113s.41 2.281 1.237 3.113c.827.834 1.835 1.255 3.037 1.255q1.966 0 3.276-1.385l.781.737c-1.075 1.178-2.431 1.767-4.057 1.767q-2.278 0-3.871-1.605-1.596-1.605-1.597-3.884c0-1.519.535-2.81 1.597-3.884q1.6-1.605 3.871-1.605v-.007z" data-color="1"/>
            <path fill="#1a1a1a" d="M176.444 67.226h5.272v1.121h-5.272v3.755h5.611v1.121h-6.809V62.46h6.809v1.12h-5.611v3.65z" data-color="1"/>
            <path fill="#1a1a1a" d="M190.017 62.35h.169q1.14-.002 2.178.48a4.66 4.66 0 0 1 1.716 1.322l-.781.709a3.8 3.8 0 0 0-1.401-1.014 4.2 4.2 0 0 0-1.706-.371h-.168c-.637 0-1.209.164-1.727.49q-.778.49-.778 1.385-.001.692.564 1.07c.371.252.956.427 1.744.529l1.17.15q1.704.221 2.583.93c.585.473.878 1.188.878 2.128s-.382 1.706-1.148 2.285q-1.15.869-2.82.884h-.091q-1.554-.001-2.683-.637-1.131-.64-1.654-1.7l.782-.722q.387.862 1.306 1.402.92.54 2.245.54h.091c.788 0 1.446-.186 1.975-.55.529-.372.793-.867.793-1.494q.001-.88-.596-1.328-.601-.457-1.801-.624l-1.17-.14c-1.121-.141-1.958-.435-2.522-.863-.563-.434-.844-1.041-.844-1.83 0-.9.361-1.633 1.086-2.184q1.084-.827 2.623-.844l-.011-.007z" data-color="1"/>
            <path fill="#1a1a1a" d="m213.442 73.221-.861-.88q-.971.939-2.736.94h-.106c-1.12-.01-2.003-.293-2.666-.844-.665-.551-.991-1.3-.991-2.247 0-.648.168-1.199.518-1.655.343-.456.81-.795 1.408-1.008l-.631-.631q-.751-.825-.753-1.865-.001-1.166.879-1.892.877-.724 2.262-.722h.123q1.325.018 2.228.76.906.743.907 1.977v.152h-1.138c0-.596-.203-1.042-.613-1.346q-.614-.457-1.474-.456c-.575 0-1.047.147-1.451.439q-.608.439-.607 1.3c0 .473.175.89.523 1.262l4.225 4.37q.294-.505.293-1.17h.879c0 .708-.158 1.345-.479 1.92l1.507 1.58h-1.233l-.011.012zm-3.58-1.03q1.294 0 1.952-.709l-3.241-3.323c-.41.147-.736.372-.973.687-.242.316-.361.694-.361 1.15q-.002 1.031.732 1.616.734.584 1.896.585l-.007-.006z" data-color="1"/>
            <path fill="#1a1a1a" d="M231.427 73.221h-1.199v-3.694l-4.089-7.077h1.367l3.335 5.63 3.319-5.63h1.366l-4.102 7.077v3.694z" data-color="1"/>
            <path fill="#1a1a1a" d="m240.397 70.36-1.17 2.861h-1.324l4.459-10.765h.673l4.441 10.765h-1.321l-1.17-2.86h-4.599zm2.306-5.692-1.872 4.567h3.752l-1.876-4.567h-.006z" data-color="1"/>
            <path fill="#1a1a1a" d="M256.511 62.35c1.622 0 2.971.603 4.057 1.802l-.781.709q-1.333-1.385-3.273-1.385-1.799-.001-3.04 1.255c-.827.834-1.24 1.875-1.24 3.113s.411 2.281 1.24 3.113c.827.834 1.835 1.255 3.04 1.255q1.966 0 3.273-1.385l.781.737c-1.073 1.178-2.429 1.767-4.057 1.767q-2.275 0-3.873-1.605-1.594-1.605-1.595-3.884c0-1.519.533-2.81 1.595-3.884 1.065-1.07 2.36-1.605 3.873-1.605v-.007z" data-color="1"/>
            <path fill="#1a1a1a" d="M273.591 73.221h-1.198v-4.893h-5.734v4.893h-1.198V62.456h1.198v4.753h5.734v-4.753h1.198z" data-color="1"/>
            <path fill="#1a1a1a" d="M282.75 63.578v9.645h-1.199v-9.645h-3.335v-1.122h7.854v1.121z" data-color="1"/>
            <path fill="#1a1a1a" d="M303.131 62.35c1.621 0 2.97.603 4.056 1.802l-.781.709q-1.333-1.385-3.273-1.385-1.799-.001-3.04 1.255c-.825.834-1.235 1.875-1.235 3.113s.41 2.281 1.235 3.113c.827.834 1.835 1.255 3.04 1.255q1.966 0 3.273-1.385l.781.737c-1.073 1.178-2.429 1.767-4.056 1.767q-2.278 0-3.871-1.605-1.598-1.605-1.598-3.884c0-1.519.533-2.81 1.598-3.884 1.062-1.07 2.357-1.605 3.871-1.605v-.007z" data-color="1"/>
            <path fill="#1a1a1a" d="M318.787 73.221h-6.701V62.456h1.198v9.646h5.503v1.121z" data-color="1"/>
            <path fill="#1a1a1a" d="M331.668 62.456v6.138q0 2.17-1.216 3.452-1.212 1.283-3.167 1.283c-1.304 0-2.368-.428-3.174-1.279q-1.206-1.276-1.204-3.463V62.45h1.198v6.103c0 1.16.289 2.054.857 2.691.568.638 1.345.95 2.33.95q1.476.001 2.329-.95c.568-.637.857-1.531.857-2.691V62.45h1.198l-.006.006z" data-color="1"/>
            <path fill="#1a1a1a" d="M337.402 62.456h3.903c2.375 0 3.567.923 3.567 2.77q-.002 1.815-1.632 2.352c.699.136 1.239.435 1.621.908q.574.71.574 1.752 0 2.982-3.752 2.983h-4.288V62.456zm1.198 1.121v3.554h2.811c1.55 0 2.321-.592 2.321-1.767 0-.547-.162-.974-.486-1.3-.319-.32-.933-.484-1.835-.484H338.6zm0 4.582v3.936h3.303q2.397-.001 2.397-1.97c0-.602-.203-1.086-.603-1.436q-.6-.53-1.8-.53h-3.303z" data-color="1"/>
            <path fill="#1a1a1a" d="M0 .845h5.367l15.136 38.259-2.411 3.56 9.167-22.992q2.774-6.94 3.95-11.104T32.808.845h3.558a335 335 0 0 0-3.256 7.574 968 968 0 0 0-3.255 7.935 370 370 0 0 0-1.447 3.68L18.154 45.622h-.241z" data-color="1"/>
            <path fill="#1a1a1a" d="M42.739.845h4.946v43.932h-4.946z" data-color="1"/>
            <path fill="#1a1a1a" d="M64.348 45.016a39 39 0 0 1-4.916-1.238q-2.323-.754-3.89-1.538l.964-3.318q1.446 1.63 3.649 2.897a21 21 0 0 0 4.765 1.992q2.562.725 4.855.724 2.955 0 5.277-1.148 2.321-1.146 3.618-3.139 1.297-1.99 1.298-4.586 0-2.594-1.237-4.526a11.5 11.5 0 0 0-3.077-3.227q-1.84-1.297-4.553-2.564a2.9 2.9 0 0 0-.784-.363l-2.955-1.448q-.603-.3-1.326-.602-2.835-1.388-4.916-2.837a12.9 12.9 0 0 1-3.497-3.65q-1.418-2.205-1.417-5.16 0-3.199 1.719-5.733 1.718-2.535 4.765-3.984Q65.735.121 69.655.121q3.315 0 6.634.966 3.316.965 5.549 2.292l-.784 2.957q-2.293-2.232-5.428-3.741-3.137-1.508-6.513-1.508-2.837 0-4.856 1.056Q62.237 3.2 61.15 4.98q-1.085 1.779-1.086 3.953 0 2.415 1.177 4.163a10.6 10.6 0 0 0 3.016 2.957q1.839 1.208 4.735 2.655l.542.182 3.016 1.447 1.446.663q3.016 1.51 5.065 2.988a11.9 11.9 0 0 1 3.346 3.711q1.297 2.234 1.298 5.37.001 3.802-1.9 6.61-1.902 2.806-5.186 4.313-3.286 1.508-7.267 1.508-2.413-.001-5.004-.482z" data-color="1"/>
            <path fill="#1a1a1a" d="m102.039 1.208 1.207.723h-2.774q-2.775 0-5.61.543-2.834.545-6.453 1.87h-.12l.783-3.5h30.817l.784 3.5h-.121q-3.559-1.325-6.423-1.87a30 30 0 0 0-5.578-.543h-2.775l1.207-.723v43.569h-4.946V1.206z" data-color="1"/>
            <path fill="#1a1a1a" d="M148.917 44.774h5.367L136.369 0h-.24l-10.253 25.584-1.63 3.982c-1.088 2.657-2.139 5.232-3.165 7.725a246 246 0 0 1-3.227 7.481h3.62c.281-2.376.801-4.947 1.568-7.725.433-1.573 1.051-3.45 1.843-5.615 4.437-3.484 10.245-6.805 16.005-6.938l8.023 20.28.004.005zm-23.302-15.27a193 193 0 0 1 1.41-3.557l7.252-18.18 6.231 15.741c-5.419.169-10.566 2.744-14.891 6v-.005z" data-color="1"/>
            <path fill="#1a1a1a" d="M282.141 23.71c1.792-.664 3.396-1.416 4.78-2.258 1.69-1.026 3.053-2.325 4.1-3.893q1.569-2.352 1.567-5.554c0-3.699-1.476-6.49-4.432-8.358Q283.723.842 275.161.843h-9.707v43.931h4.944V24.98h4.703q1.386.002 2.053.27c.445.179.883.531 1.328 1.058l17.187 19.549h.302v-6.46l-13.828-15.696v.01zm-5.892.306q-1.385 0-3.467-.153c-1.036-.078-1.829-.154-2.379-.24V1.808h4.585q6.15.001 9.351 2.804 3.195 2.807 3.197 7.812-.001 3.133-1.388 5.794a10.6 10.6 0 0 1-3.953 4.225q-2.567 1.57-5.939 1.569h-.005z" data-color="1"/>
            <path fill="#1a1a1a" d="M333.581 27.157c-1.125-1.614-2.651-2.886-4.588-3.832-1.924-.95-4.096-1.497-6.511-1.662v-.116a15.5 15.5 0 0 0 4.95-1.936c1.526-.92 2.746-2.095 3.677-3.521.928-1.426 1.386-3.05 1.386-4.859 0-3.218-1.261-5.752-3.772-7.608-2.511-1.85-6.213-2.77-11.123-2.77h-13.504v43.928h13.031c3.815 0 7.088-.48 9.796-1.445q4.076-1.45 6.215-4.166 2.138-2.713 2.138-6.452c0-2.096-.568-3.94-1.691-5.544l-.004-.015zM309.033 1.804h7.421c3.538 0 6.213.94 8.05 2.804 1.829 1.88 2.738 4.256 2.738 7.148 0 1.86-.393 3.53-1.174 5.049-.782 1.508-1.924 2.687-3.412 3.562-1.066.618-2.267 1.018-3.592 1.186-.374.052-1.552.173-1.701.206-3.176.438-6.199 1.752-8.328 4.057V1.803zm17.311 39.35q-3.445 2.651-10.553 2.652c-1.255 0-2.61-.04-4.106-.116-1.261-.067-2.129-.158-2.652-.292v-16.03c2.192-2.952 6.091-4.536 9.774-4.73 3.316.056 5.957 1.058 7.926 2.983 2.023 1.998 3.037 4.634 3.037 7.94 0 3.304-1.142 5.83-3.433 7.597l.005-.004z" data-color="1"/>
            <path fill="#1a1a1a" d="M376.035 2.837Q370.968.123 364.752.123c-4.143 0-8.191.955-11.667 2.867q-5.215 2.87-8.29 8.114c-2.056 3.495-3.077 7.522-3.077 12.07 0 4.547.987 8.446 2.958 11.827q2.955 5.066 8.02 7.788c3.377 1.808 7.134 2.713 11.283 2.713 4.15 0 8.191-.955 11.667-2.866 3.478-1.912 6.229-4.615 8.261-8.114q3.042-5.25 3.044-12.07c0-4.547-.976-8.447-2.926-11.828-1.951-3.376-4.618-5.973-7.99-7.787m3.344 31.531c-1.429 3.24-3.426 5.744-6 7.511q-3.861 2.66-8.806 2.658c-3.297 0-6.259-.914-8.895-2.744s-4.702-4.405-6.211-7.725c-1.505-3.32-2.263-7.148-2.263-11.497s.725-8.078 2.172-11.314q2.167-4.86 6.032-7.511c2.571-1.767 5.51-2.657 8.804-2.657q4.941 0 8.865 2.743c2.615 1.83 4.672 4.416 6.183 7.756q2.262 5.012 2.263 11.467c0 4.303-.715 8.077-2.137 11.313z" data-color="1"/>
            <path fill="#1a1a1a" d="M404.311 23.71c-1.79-.664-3.394-1.416-4.778-2.258-1.69-1.026-3.053-2.325-4.1-3.893q-1.569-2.352-1.567-5.554c0-3.699 1.474-6.49 4.432-8.358Q402.733.842 411.295.843h9.707v43.931h-4.942V24.98h-4.702q-1.388.002-2.053.27c-.445.179-.885.531-1.33 1.058l-17.188 19.549h-.3v-6.46l13.826-15.696v.01zm5.894.306c.926 0 2.077-.052 3.467-.153 1.037-.078 1.829-.154 2.382-.24V1.808h-4.588q-6.15.001-9.342 2.804-3.197 2.807-3.198 7.812.001 3.133 1.391 5.794a10.6 10.6 0 0 0 3.951 4.225c1.712 1.048 3.687 1.569 5.939 1.569z" data-color="1"/>
            <path fill="#1a1a1a" d="M252.934 44.774h5.368L240.386 0h-.239l-10.253 25.584-1.63 3.982c-1.088 2.657-2.14 5.232-3.165 7.725a246 246 0 0 1-3.228 7.481h3.621c.28-2.376.801-4.947 1.567-7.725.434-1.573 1.052-3.45 1.844-5.615 4.437-3.484 10.244-6.805 16.004-6.939l8.023 20.281.004.005zm-23.301-15.27c.429-1.12.898-2.3 1.409-3.557l7.252-18.18 6.231 15.741c-5.419.169-10.566 2.744-14.89 6v-.005z" data-color="1"/>
            <path fill="#1a1a1a" d="M209.921.843v21.43c-9.463.052-15.769 1.654-22.678 4.256V.843h-4.944v43.931h4.944V28.235c7.201-2.83 15.014-4.7 22.678-4.843V44.78h4.944V.849h-4.944z" data-color="1"/>
        </g>
        <defs fill="none">
            <clipPath id="73da6b3f-1beb-4cd1-88d9-15c00c7b6aa2">
                <path fill="#ffffff" d="M421 0v73.333H0V0z"/>
            </clipPath>
        </defs>
    </g>
</svg>
